# xmcd CD database file
#
# Track frame offsets:
#	150
#	10793
#	24585
#	36508
#	51218
#	63241
#	77904
#	89375
#	100579
#	112314
#	125418
#	138509
#	148336
#	159187
#	168995
#	181947
#	193637
#	202084
#	215732
#	229318
#	240426
#	252735
#
# Disc length: 3538 seconds
#
# Revision: 0
# Processed by: cddbd v1.5.2PL0 Copyright (c) Steve Scherf et al.
# Submitted via: CDex 1.70beta2
#
DISCID=430dd016
DTITLE=Johnny Rodriguez - Introducng Johhny Rodriguez
DYEAR=1973
DGENRE=Country
TTITLE0=You Always Come Back (To Hurting Me)
TTITLE1=I Wonder Where You Are Tonight
TTITLE2=One More Chance To Be With You
TTITLE3=Jealous Darlin'
TTITLE4=Easy Come, Easy Go
TTITLE5=Answer To Your Letter
TTITLE6=Pass Me By (If You're Only Passing Through)
TTITLE7=Jealous Heart
TTITLE8=We Had A Good Time Trying
TTITLE9=You Go Around
TTITLE10=Leavin' Somethin' Left To Do
TTITLE11=Ridin' My Thumb To Mexico
TTITLE12=Release Me (And Let Me Love Again)
TTITLE13=I'll Just Have To Learn To Stay Away From You
TTITLE14=Love And Honour
TTITLE15=Jimmy Was A Drinkin' Kind Of Man
TTITLE16=That's The Way Love Goes
TTITLE17=All I Ever Meant To Do Was Love You
TTITLE18=Music City Band
TTITLE19=Love Ain't Such An Easy Thing To Find
TTITLE20=Good Lord Knows I Tried
TTITLE21=I Really Don't Want To Know
EXTD=YEAR: 1973
EXTT0=
EXTT1=
EXTT2=
EXTT3=
EXTT4=
EXTT5=
EXTT6=
EXTT7=
EXTT8=
EXTT9=
EXTT10=
EXTT11=
EXTT12=
EXTT13=
EXTT14=
EXTT15=
EXTT16=
EXTT17=
EXTT18=
EXTT19=
EXTT20=
EXTT21=
PLAYORDER=
